<?xml version="1.0" encoding="UTF-8" standalone="no"?>
<!DOCTYPE svg PUBLIC "-//W3C//DTD SVG 1.1//EN" "http://www.w3.org/Graphics/SVG/1.1/DTD/svg11.dtd">
<svg width="100%" height="100%" viewBox="0 0 1125 2436" version="1.1" xmlns="http://www.w3.org/2000/svg" xmlns:xlink="http://www.w3.org/1999/xlink" xml:space="preserve" xmlns:serif="http://www.serif.com/" style="fill-rule:evenodd;clip-rule:evenodd;stroke-miterlimit:10;">
    <g id="clefs---bars" serif:id="clefs + bars">
        <g transform="matrix(1,0,0,1,369.043,472.324)">
            <path d="M0,465.799C93.125,434.79 76.164,283.214 -24.991,280.354C-16.64,342.319 -8.339,403.916 0,465.799M-58.34,32.705C-24.628,4.464 6.791,-28.701 24.491,-69.514C34.513,-94.685 44.645,-123.135 36.417,-150.197C29.978,-171.045 4.083,-172.236 -10.083,-159.064C-59.7,-110.461 -71.074,-33.331 -58.34,32.705M-17.066,470.794C-25.466,407.521 -33.814,344.644 -42.195,281.523C-106.784,290.873 -131.447,386.906 -68.484,416.596C-59.976,419.063 -60.085,428.304 -69.954,426.35C-110.241,419.236 -134.162,378.155 -136.252,339.82C-139.685,285.794 -102.085,234.078 -50.557,218.492C-54.491,188.858 -58.446,159.064 -62.435,129.02C-129.293,186.809 -215.202,256.298 -201.063,355.007C-189.408,439.638 -97.511,492.57 -17.066,470.794M2.545,484.692C6.219,511.971 9.889,538.855 13.544,566.056C18.169,597.281 22.974,629.832 9.296,659.621C-9.35,703.438 -61.787,720.482 -106.111,713.22C-171.219,708.689 -215.973,613.436 -156.454,572.08C-72.423,525.473 -35.358,678.171 -134.563,671.46C-101.476,709.744 -25.655,696.433 -8.614,647.898C9.739,598.164 -10.767,540.437 -14.737,489.011C-161.711,517.683 -282.241,353.673 -224.683,219.203C-204.536,168.646 -167.355,127.172 -127.216,91.38C-110.122,76.275 -92.565,61.692 -75.159,46.942C-71.736,38.036 -78.146,21.919 -78.164,11.485C-89.41,-61.918 -84.869,-139.15 -46.427,-204.357C-34.569,-224.447 -18.658,-245.649 4.753,-252.187C24.98,-254.683 35.589,-222.472 42.837,-207.732C59.438,-164.033 63.372,-116.268 58.058,-70.032C55.486,8.267 12.371,65.962 -46.008,114.05C-45.528,146.933 -36.998,181.822 -33.704,215.324C126.577,201.32 148.829,445.992 2.545,484.692" style="fill-rule:nonzero;"/>
        </g>
        <g transform="matrix(1,0,0,1,274.581,1917.98)">
            <path d="M0,-434.511C99.258,-431.021 141.927,-346.023 132.662,-255.555C124.707,-152.946 41.114,-77.563 -46.536,-35.109C-77.408,-20.355 -109.398,-6.658 -142.391,2.021C-144.376,1.839 -146.452,1.612 -148.271,0.872C-154.875,-2.23 -147.213,-7.324 -143.484,-8.805C-129.191,-15.231 -114.813,-21.468 -100.53,-27.918C0.898,-71.463 79.687,-169.009 68.227,-283.501C65.242,-332.666 55.125,-401.357 -1.979,-413.734C-45.252,-422.084 -107.905,-395.667 -105.65,-345.131C-86.898,-362.297 -58.144,-369.762 -36.688,-353.214C-15.829,-339.117 -12.775,-309.993 -18.538,-287.228C-26.944,-250.967 -73.092,-239.282 -102.877,-257.238C-144.821,-287.288 -139.064,-355.589 -108.071,-391.832C-82.076,-423.561 -39.994,-436.532 0,-434.511" style="fill-rule:nonzero;"/>
        </g>
        <g transform="matrix(1,0,0,1,487.944,1541.86)">
            <path d="M0,0.42C0.244,37.628 -57.303,37.223 -56.752,0.116C-56.982,-37.208 0.618,-37.099 0,0.42" style="fill-rule:nonzero;"/>
        </g>
        <g transform="matrix(1,0,0,1,459.5,1640.27)">
            <path d="M0,56.53C-36.99,56.802 -37.229,0.058 -0.287,-0.272C36.715,0.221 38.243,56.068 0,56.53" style="fill-rule:nonzero;"/>
        </g>
        <g transform="matrix(1,0,0,1,106.563,700)">
            <path d="M0,0L1003.39,0" style="fill:none;fill-rule:nonzero;stroke:black;stroke-width:6px;"/>
        </g>
        <g transform="matrix(1,0,0,1,105.97,830.987)">
            <path d="M0,0L1003.98,0" style="fill:none;fill-rule:nonzero;stroke:black;stroke-width:6px;"/>
        </g>
        <g transform="matrix(1,0,0,1,106.563,573.004)">
            <path d="M0,0L1003.39,0" style="fill:none;fill-rule:nonzero;stroke:black;stroke-width:6px;"/>
        </g>
        <g transform="matrix(1,0,0,1,1112.93,437.346)">
            <path d="M-2.979,524.629L-1006.98,524.629" style="fill:none;fill-rule:nonzero;stroke:black;stroke-width:6px;"/>
        </g>
        <g transform="matrix(1,0,0,1,1113.54,442)">
            <path d="M-1006.98,0C-672.517,-0.998 -338.055,-0.056 -3.593,0" style="fill:none;fill-rule:nonzero;stroke:black;stroke-width:6px;stroke-linecap:square;"/>
        </g>
        <g transform="matrix(6.12323e-17,1,-1,6.12323e-17,106.449,1443.92)">
            <path d="M-1004.93,0L563.075,0" style="fill:none;fill-rule:nonzero;stroke:black;stroke-width:15px;"/>
        </g>
        <g transform="matrix(6.12323e-17,1,-1,6.12323e-17,1109.95,1443.92)">
            <path d="M-1004.93,0L563.075,0" style="fill:none;fill-rule:nonzero;stroke:black;stroke-width:6px;"/>
        </g>
        <g transform="matrix(1,0,0,1,106.563,1741.97)">
            <path d="M0,0L1003.39,0" style="fill:none;fill-rule:nonzero;stroke:black;stroke-width:6px;"/>
        </g>
        <g transform="matrix(1,0,0,1,105.97,1872.96)">
            <path d="M0,0L1003.98,0" style="fill:none;fill-rule:nonzero;stroke:black;stroke-width:6px;"/>
        </g>
        <g transform="matrix(1,0,0,1,106.563,1610.99)">
            <path d="M0,0L1003.39,0" style="fill:none;fill-rule:nonzero;stroke:black;stroke-width:6px;"/>
        </g>
        <g transform="matrix(1,0,0,1,1113.59,1479.37)">
            <path d="M-3.593,524.629C-338.055,524.723 -672.517,526.136 -1006.98,524.629" style="fill:none;fill-rule:nonzero;stroke:black;stroke-width:6px;"/>
        </g>
        <g transform="matrix(1,0,0,1,1112.95,1480)">
            <path d="M-1006.98,0L-3,0" style="fill:none;fill-rule:nonzero;stroke:black;stroke-width:6px;"/>
        </g>
        <g transform="matrix(0.839772,0,0,1,72.0686,447.969)">
            <path d="M0,1552.03L-3.466,1546.77C-4.615,1545.01 -5.707,1543.21 -6.831,1541.43C-7.96,1539.66 -9.049,1537.86 -10.129,1536.05C-11.21,1534.25 -12.306,1532.45 -13.333,1530.61C-15.413,1526.95 -17.493,1523.29 -19.463,1519.56C-21.496,1515.86 -23.387,1512.09 -25.286,1508.32C-32.79,1493.18 -39.252,1477.49 -44.758,1461.43C-55.729,1429.3 -62.472,1395.58 -64.427,1361.39C-65.431,1344.29 -65.056,1327.08 -63.548,1310C-61.988,1292.92 -59.186,1276 -55.552,1259.37C-48.401,1226.02 -37.841,1194.08 -28.351,1162.29C-23.59,1146.39 -19.119,1130.48 -15.256,1114.43C-11.389,1098.38 -8.243,1082.17 -5.968,1065.81C-5.687,1063.76 -5.378,1061.72 -5.12,1059.67L-4.424,1053.51L-3.742,1047.34L-3.239,1041.16L-2.736,1034.97C-2.584,1032.91 -2.503,1030.84 -2.392,1028.78L-2.084,1022.57L-1.926,1016.36C-1.877,1014.29 -1.805,1012.22 -1.799,1010.15L-1.838,1003.93L-1.884,997.711L-2.108,991.495L-2.358,985.278C-2.458,983.206 -2.632,981.139 -2.766,979.068C-3.068,974.93 -3.274,970.781 -3.778,966.66C-5.31,950.124 -7.972,933.69 -11.441,917.441C-14.771,901.156 -19.256,885.121 -24.274,869.285C-34.472,837.638 -47.746,807.055 -63.089,777.642L-64.487,774.963L-62.891,771.973C-59.011,764.706 -55.342,757.342 -51.85,749.906L-49.282,744.307C-48.422,742.443 -47.636,740.546 -46.805,738.671C-45.126,734.927 -43.616,731.113 -42.047,727.328C-40.542,723.516 -39.059,719.697 -37.64,715.858C-36.279,711.996 -34.833,708.169 -33.578,704.276L-31.625,698.465C-30.987,696.524 -30.415,694.561 -29.806,692.612C-29.214,690.657 -28.587,688.714 -28.025,686.752L-26.386,680.852C-17.772,649.394 -12.557,617.007 -11.785,584.611C-11.399,568.419 -12.176,552.241 -14.03,536.165C-15.883,520.084 -18.918,504.124 -22.588,488.22C-26.304,472.323 -30.665,456.472 -35.308,440.547L-42.258,416.554C-44.569,408.525 -46.903,400.454 -49.081,392.326C-57.916,359.838 -64.979,326.295 -67.916,292.291C-69.435,275.303 -69.995,258.242 -69.638,241.219C-69.237,224.195 -67.943,207.212 -65.707,190.381C-63.567,173.535 -60.311,156.873 -56.385,140.425L-54.881,134.264C-54.385,132.21 -53.89,130.156 -53.298,128.127L-49.888,115.926C-49.338,113.888 -48.696,111.878 -48.048,109.869L-46.127,103.841C-44.829,99.829 -43.631,95.789 -42.164,91.836C-31.119,59.997 -17.344,29.251 -1.095,0L0.885,0.959C-11.867,31.785 -22.851,63.184 -31.411,95.114C-35.575,111.106 -39.289,127.188 -42.061,143.412C-44.93,159.611 -47.156,175.898 -48.436,192.238C-51.125,224.899 -50.54,257.702 -46.659,290.079C-44.698,306.264 -41.957,322.348 -38.493,338.326C-34.99,354.296 -30.952,370.196 -26.437,386.082C-17.557,417.877 -7.205,449.829 -0.086,483.189C3.511,499.833 6.299,516.774 7.895,533.876C9.467,550.98 9.847,568.217 9.017,585.357C7.314,619.63 1.16,653.528 -9.431,685.944C-19.884,718.398 -34.666,749.256 -52.393,778.016L-52.194,772.347C-38.364,803.134 -26.716,834.834 -17.171,867.109C-15.893,871.118 -14.874,875.205 -13.771,879.264L-12.125,885.357C-11.569,887.385 -11,889.41 -10.538,891.464L-7.61,903.741C-7.367,904.764 -7.101,905.782 -6.875,906.809L-6.226,909.898L-4.93,916.075L-3.634,922.251C-3.204,924.309 -2.893,926.392 -2.495,928.459C-1.759,932.601 -0.932,936.729 -0.272,940.885L1.633,953.369C2.25,957.533 2.713,961.719 3.261,965.895C5.248,982.622 6.558,999.45 7.038,1016.33C7.538,1033.21 7.194,1050.14 6.058,1067.05C3.76,1100.87 -2.316,1134.51 -10.682,1167.16L-13.855,1179.38L-17.159,1191.53L-23.892,1215.66C-28.389,1231.69 -32.766,1247.62 -36.445,1263.63C-40.07,1279.64 -43.122,1295.72 -44.935,1311.92L-45.56,1318C-45.771,1320.03 -46.013,1322.06 -46.135,1324.09L-46.585,1330.18L-46.807,1333.23L-46.931,1336.29C-47.079,1340.36 -47.331,1344.43 -47.301,1348.51C-47.345,1352.58 -47.446,1356.66 -47.295,1360.75C-46.654,1393.4 -41.878,1426.13 -33.462,1458.01C-29.258,1473.96 -24.146,1489.72 -18.212,1505.21C-12.289,1520.72 -5.484,1535.93 1.904,1550.93L0,1552.03Z" style="fill-rule:nonzero;"/>
        </g>
    </g>
</svg>
