<?xml version="1.0" encoding="UTF-8" standalone="no"?>
<!DOCTYPE svg PUBLIC "-//W3C//DTD SVG 1.1//EN" "http://www.w3.org/Graphics/SVG/1.1/DTD/svg11.dtd">
<svg width="100%" height="100%" viewBox="0 0 1125 2436" version="1.1" xmlns="http://www.w3.org/2000/svg" xmlns:xlink="http://www.w3.org/1999/xlink" xml:space="preserve" xmlns:serif="http://www.serif.com/" style="fill-rule:evenodd;clip-rule:evenodd;stroke-linejoin:round;stroke-miterlimit:2;">
    <g transform="matrix(0.976586,0,0,0.976586,797.228,527.709)">
        <g id="Notes--Bass-" serif:id="Notes (Bass)">
            <path id="_20" serif:id="20" d="M0,93.319C-21.012,104.173 -54.104,92.258 -73.915,66.705C-93.726,41.152 -92.751,11.636 -71.74,0.782C-50.729,-10.073 -17.636,1.842 2.175,27.396C21.985,52.949 21.011,82.465 0,93.319M-35.945,-14.779C-97.87,-14.779 -148.07,12.728 -148.07,46.66C-148.07,80.591 -97.87,108.098 -35.945,108.098C25.979,108.098 76.18,80.591 76.18,46.66C76.18,12.728 25.979,-14.779 -35.945,-14.779" style="fill-rule:nonzero;"/>
        </g>
    </g>
</svg>
